<?xml version="1.0" standalone="no"?>
<!DOCTYPE svg PUBLIC "-//W3C//DTD SVG 20010904//EN"
 "http://www.w3.org/TR/2001/REC-SVG-20010904/DTD/svg10.dtd">
<svg version="1.0" xmlns="http://www.w3.org/2000/svg"
 width="499.000000pt" height="500.000000pt" viewBox="0 0 499.000000 500.000000"
 preserveAspectRatio="xMidYMid meet">

<g transform="translate(0.000000,500.000000) scale(0.100000,-0.100000)"
fill="#ffffff" stroke="none">
<path d="M2325 4255 c-93 -24 -331 -82 -527 -130 l-358 -88 0 -36 c0 -40 -17
-65 -70 -104 -54 -39 -205 -111 -307 -147 l-93 -33 0 -742 c0 -813 1 -831 60
-1007 138 -412 491 -774 1048 -1074 77 -41 276 -131 349 -157 l73 -26 112 45
c151 60 317 143 457 227 528 318 842 701 930 1134 20 97 21 133 21 851 l0 750
-67 23 c-153 50 -316 133 -372 190 -24 23 -31 39 -31 68 l0 38 -127 31 c-71
18 -303 75 -518 127 -214 53 -394 97 -400 99 -5 1 -86 -16 -180 -39z m536
-181 c195 -48 413 -101 484 -118 l130 -32 6 -43 c4 -34 14 -50 40 -72 47 -40
217 -123 317 -155 l83 -27 -4 -716 c-3 -698 -4 -718 -25 -798 -45 -172 -128
-343 -230 -478 -65 -85 -202 -225 -307 -313 -206 -173 -557 -373 -811 -462
l-51 -18 -114 48 c-172 72 -245 106 -344 163 -466 266 -757 567 -891 924 -68
180 -75 291 -72 1032 l3 615 114 43 c129 49 253 112 293 150 19 18 28 38 30
66 l3 40 475 117 c261 65 485 118 496 119 12 1 181 -38 375 -85z"/>
<path d="M2240 4065 c-140 -35 -353 -87 -472 -116 l-218 -53 0 -31 c-1 -16 -8
-39 -18 -50 -43 -52 -184 -129 -327 -181 l-90 -32 0 -678 c0 -620 2 -686 18
-764 75 -348 290 -646 655 -907 173 -124 404 -251 598 -328 l113 -45 103 41
c216 86 473 231 671 381 122 92 322 297 391 402 115 175 180 339 205 521 7 48
11 320 11 728 l0 652 -76 24 c-100 32 -260 112 -312 157 -31 26 -44 45 -48 73
l-6 37 -461 114 c-254 62 -466 114 -472 116 -5 1 -125 -26 -265 -61z m162
-663 c-14 -4 -16 -52 -2 -52 6 0 10 -5 10 -11 0 -6 -10 -9 -22 -7 -18 2 -24
12 -29 43 -4 22 -2 48 3 58 9 18 11 18 31 -4 14 -15 17 -24 9 -27z m125 32 c3
-10 1 -31 -5 -48 -8 -20 -9 -32 -2 -34 5 -2 10 -8 10 -13 0 -5 -25 -9 -55 -8
-39 2 -55 6 -55 16 0 15 12 17 26 3 12 -12 68 56 58 72 -5 8 -11 6 -20 -6 -17
-24 -38 -11 -24 15 13 23 58 25 67 3z m95 -3 c12 -19 12 -19 26 0 9 13 23 19
40 17 32 -4 40 -30 20 -66 -10 -20 -10 -26 0 -29 27 -10 10 -23 -29 -23 l-41
0 26 34 c27 36 33 56 16 56 -5 0 -10 -4 -10 -10 0 -5 -6 -10 -14 -10 -7 0 -17
-15 -22 -32 -18 -63 -84 -46 -84 21 0 58 45 84 72 42z m188 4 c0 -9 -10 -15
-27 -16 -27 -1 -27 -1 -4 -8 33 -9 49 -36 35 -58 -15 -24 -57 -28 -74 -8 -17
21 -4 32 20 17 13 -8 21 -8 26 -1 8 14 -2 23 -26 24 -11 0 -20 3 -20 8 -1 57
-1 57 35 57 24 0 35 -5 35 -15z m-556 -31 c11 -28 7 -34 -25 -34 -18 0 -28 -4
-24 -10 3 -6 17 -7 31 -4 19 5 23 3 18 -10 -10 -26 -63 -21 -73 7 -9 24 -4 48
13 59 19 13 54 9 60 -8z m82 4 c4 -6 2 -14 -5 -16 -9 -3 -9 -7 0 -18 17 -20 3
-44 -25 -44 -27 0 -47 21 -27 28 9 3 9 7 0 18 -6 7 -9 21 -5 29 6 18 52 20 62
3z m667 -245 c-276 -2 -730 -2 -1010 0 -279 1 -53 2 502 2 556 0 784 -1 508
-2z m-932 -275 c56 -16 113 -69 138 -127 24 -57 31 -180 12 -247 -21 -77 -81
-137 -161 -161 -100 -29 -202 8 -259 93 -55 84 -65 223 -22 317 49 109 171
162 292 125z m484 1 c64 -18 115 -79 115 -139 0 -18 -6 -20 -53 -20 -48 0 -55
3 -65 25 -27 59 -132 50 -132 -11 0 -30 26 -47 126 -85 109 -41 148 -80 148
-147 0 -65 -28 -111 -84 -140 -39 -20 -56 -23 -132 -20 -72 3 -92 8 -125 30
-42 28 -73 79 -73 122 0 25 2 26 60 26 53 0 60 -2 60 -19 0 -31 47 -61 94 -61
55 0 79 18 74 55 -3 27 -10 33 -88 63 -134 53 -180 99 -180 179 0 112 120 179
255 142z m1079 -19 c43 -30 61 -70 60 -131 -2 -55 -24 -100 -99 -199 l-56 -75
75 -3 76 -3 0 -54 0 -55 -180 0 c-125 0 -180 3 -180 11 0 6 17 32 38 58 76 92
204 266 213 289 12 31 1 70 -21 82 -53 29 -110 -5 -110 -65 l0 -35 -50 0 c-59
0 -65 9 -55 76 8 54 52 109 99 124 56 17 149 7 190 -20z m-2010 -6 c52 -27 76
-73 76 -147 0 -119 -62 -180 -184 -181 l-71 -1 -5 -90 -5 -90 -60 0 -60 0 -3
255 c-1 140 0 261 3 268 4 11 32 13 138 10 109 -2 139 -7 171 -24z m1354 -7
c5 -18 29 -113 53 -212 36 -148 45 -174 51 -150 4 17 24 95 43 175 20 80 40
162 46 183 l10 37 64 0 c36 0 65 -1 65 -2 0 -2 -35 -122 -78 -268 l-78 -265
-79 0 -79 0 -78 265 c-43 146 -78 266 -78 268 0 1 29 2 65 2 64 0 64 0 73 -33z
m547 -767 c4 -7 -333 -10 -1005 -10 -672 0 -1009 3 -1005 10 9 14 2001 14
2010 0z m-1005 -225 l0 -64 -37 2 c-37 2 -38 3 -38 42 0 34 3 40 23 43 14 2
22 10 22 23 0 10 7 19 15 19 12 0 15 -14 15 -65z m-510 10 c0 -33 4 -45 15
-45 11 0 15 12 15 45 0 33 4 45 15 45 11 0 15 -12 15 -48 0 -52 -12 -72 -45
-72 -33 0 -45 20 -45 72 0 36 4 48 15 48 11 0 15 -12 15 -45z m676 34 c4 -7 8
-34 8 -61 2 -39 -1 -48 -13 -46 -27 5 -37 118 -11 118 5 0 12 -5 16 -11z m185
-31 l12 -43 9 43 c6 26 15 42 24 42 18 0 18 -15 -2 -73 -21 -62 -46 -63 -63
-4 -7 23 -15 50 -17 60 -4 11 0 17 10 17 9 0 20 -16 27 -42z m146 25 c4 -9 -1
-29 -10 -45 -14 -24 -14 -28 -2 -28 8 0 15 -7 15 -15 0 -11 -11 -15 -40 -15
-22 0 -40 3 -40 6 0 3 11 20 25 38 14 18 25 38 25 44 0 17 -20 15 -26 -3 -8
-21 -24 -19 -24 3 0 26 9 32 42 32 18 0 31 -6 35 -17z m-852 -52 c0 -23 -6
-37 -20 -45 -11 -6 -25 -18 -31 -26 -16 -20 -22 -13 -24 30 -4 79 -3 81 38 78
35 -3 37 -5 37 -37z m97 17 c2 -13 1 -39 -2 -58 -4 -30 -9 -36 -34 -38 -33 -4
-58 14 -37 27 9 6 10 11 2 15 -12 8 -15 58 -4 69 3 4 21 7 39 7 25 0 32 -5 36
-22z m78 12 c0 -6 -7 -13 -15 -16 -9 -4 -15 -19 -15 -35 0 -19 -5 -29 -15 -29
-11 0 -15 12 -15 45 0 43 1 45 30 45 17 0 30 -5 30 -10z m78 -37 c3 -42 2 -43
-26 -43 -36 0 -60 24 -43 43 6 8 8 17 5 20 -13 12 9 28 34 25 24 -3 27 -8 30
-45z m191 28 c12 -22 5 -31 -26 -31 -13 0 -22 -4 -19 -9 3 -5 16 -7 27 -4 16
4 20 2 17 -8 -6 -18 -45 -24 -64 -9 -17 15 -18 52 -2 68 18 18 56 14 67 -7z
m181 4 c31 -38 -27 -96 -65 -65 -18 15 -20 51 -3 68 17 17 53 15 68 -3z"/>
<path d="M2580 3391 c0 -17 4 -33 10 -36 11 -7 25 39 15 54 -12 21 -25 11 -25
-18z"/>
<path d="M2210 3389 c0 -5 5 -7 10 -4 6 3 10 8 10 11 0 2 -4 4 -10 4 -5 0 -10
-5 -10 -11z"/>
<path d="M1942 2777 c-39 -18 -65 -82 -64 -159 0 -83 21 -125 75 -152 34 -16
42 -17 74 -5 55 21 77 58 81 140 7 121 -35 190 -115 188 -15 0 -38 -5 -51 -12z"/>
<path d="M1440 2711 l0 -81 45 0 c58 0 95 32 95 83 0 52 -19 69 -84 75 l-56 4
0 -81z"/>
<path d="M2465 1860 c-7 -12 2 -30 16 -30 5 0 9 9 9 20 0 21 -15 27 -25 10z"/>
<path d="M2120 1844 c0 -14 4 -23 10 -19 6 3 10 15 10 26 0 10 -4 19 -10 19
-5 0 -10 -12 -10 -26z"/>
<path d="M2210 1850 c0 -19 11 -26 23 -14 8 8 -3 34 -14 34 -5 0 -9 -9 -9 -20z"/>
<path d="M2215 1800 c-3 -5 -1 -10 4 -10 6 0 11 5 11 10 0 6 -2 10 -4 10 -3 0
-8 -4 -11 -10z"/>
<path d="M2568 1863 c7 -3 16 -2 19 1 4 3 -2 6 -13 5 -11 0 -14 -3 -6 -6z"/>
<path d="M2742 1849 c1 -13 8 -23 13 -21 15 3 12 35 -3 40 -9 3 -13 -3 -10
-19z"/>
</g>
</svg>
